<svg width="680" height="340" viewBox="0 0 680 340" xmlns="http://www.w3.org/2000/svg">
<rect width="680" height="340" fill="#0d0f14"/>
<line x1="80" y1="0" x2="80" y2="340" stroke="#1e2440" stroke-width="0.5"/>
<line x1="160" y1="0" x2="160" y2="340" stroke="#1e2440" stroke-width="0.5"/>
<line x1="240" y1="0" x2="240" y2="340" stroke="#1e2440" stroke-width="0.5"/>
<line x1="320" y1="0" x2="320" y2="340" stroke="#1e2440" stroke-width="0.5"/>
<line x1="400" y1="0" x2="400" y2="340" stroke="#1e2440" stroke-width="0.5"/>
<line x1="480" y1="0" x2="480" y2="340" stroke="#1e2440" stroke-width="0.5"/>
<line x1="560" y1="0" x2="560" y2="340" stroke="#1e2440" stroke-width="0.5"/>
<line x1="640" y1="0" x2="640" y2="340" stroke="#1e2440" stroke-width="0.5"/>
<line x1="0" y1="60" x2="680" y2="60" stroke="#1e2440" stroke-width="0.5"/>
<line x1="0" y1="120" x2="680" y2="120" stroke="#1e2440" stroke-width="0.5"/>
<line x1="0" y1="180" x2="680" y2="180" stroke="#1e2440" stroke-width="0.5"/>
<line x1="0" y1="240" x2="680" y2="240" stroke="#1e2440" stroke-width="0.5"/>
<line x1="0" y1="300" x2="680" y2="300" stroke="#1e2440" stroke-width="0.5"/>
<circle cx="240" cy="170" r="130" fill="#4c7cf7" opacity="0.05"/>
<circle cx="240" cy="170" r="90" fill="#4c7cf7" opacity="0.05"/>
<circle cx="240" cy="170" r="60" fill="#141720" stroke="#252a3a" stroke-width="0.5"/>
<path d="M218 170 L218 158 Q218 144 240 144 Q262 144 262 158 L262 170" fill="none" stroke="#4c7cf7" stroke-width="7" stroke-linecap="round"/>
<rect x="210" y="168" width="60" height="42" rx="8" fill="#141720" stroke="#4c7cf7" stroke-width="1"/>
<circle cx="240" cy="185" r="7" fill="#0d0f14" stroke="#4c7cf7" stroke-width="1.5"/>
<rect x="237" y="183" width="6" height="10" rx="2" fill="#4c7cf7"/>
<line x1="330" y1="60" x2="330" y2="300" stroke="#1e2440" stroke-width="0.5"/>
<text x="365" y="130" font-family="-apple-system, BlinkMacSystemFont, sans-serif" font-size="34" font-weight="700" fill="#ffffff">Auto VPN</text>
<text x="365" y="158" font-family="-apple-system, BlinkMacSystemFont, sans-serif" font-size="13" fill="#5a6a8a">Automatic corporate VPN for macOS</text>
<rect x="365" y="178" width="122" height="22" rx="4" fill="#0f1828"/>
<text x="377" y="193" font-family="-apple-system, sans-serif" font-size="11" fill="#4c7cf7">Auto-reconnect</text>
<rect x="497" y="178" width="108" height="22" rx="4" fill="#0f1420"/>
<text x="509" y="193" font-family="-apple-system, sans-serif" font-size="11" fill="#2ecc8f">TOTP support</text>
<rect x="365" y="208" width="92" height="22" rx="4" fill="#0f1420"/>
<text x="377" y="223" font-family="-apple-system, sans-serif" font-size="11" fill="#2ecc8f">Watchdog</text>
<rect x="467" y="208" width="138" height="22" rx="4" fill="#0f1828"/>
<text x="479" y="223" font-family="-apple-system, sans-serif" font-size="11" fill="#4c7cf7">One-time setup</text>
<rect x="365" y="238" width="88" height="22" rx="4" fill="#0f1420"/>
<text x="377" y="253" font-family="-apple-system, sans-serif" font-size="11" fill="#2ecc8f">Apple Silicon</text>
</svg>
